 http://img814.imageshack.us/img814/8903/73413873.jpg

Country.......: USA
Genre.........: Fantasy, Adventure, Comedy, Action
Date release..: 2011 [World]
Director......: Leigh Scott
Writers.......: L. Frank Baum, Leigh Scott
Duration......: 85 min.
More..........: http://www.imdb.com/title/tt1592287
Trailer.......:

Pilot :
Dorothy Gale discovers that her best selling novels are actually based on suppressed childhood memories of her time in Oz, and that she may be in danger of experiencing it all over again. 

Cats :
Sean Astin   	 ...  	Frack
Billy Boyd 	... 	Nick Chopper
Jeffrey Combs 	... 	Frank
Brionne Davis 	... 	Simon
Ross Degraw 	... 	Cop #3
Chris DellArmo 	... 	Realtor
Monti Domingue 	... 	Amy
Liz Douglas 	... 	Em
Ross Edgar 	... 	Rick
Ashley Blythe Ellington 	... 	Betsy Bobbin
Ethan Embry 	... 	Frick
Reza Garakani 	... 	Guph
Lance Henriksen 	... 	Henry Gale
Tyler Hollinger 	... 	Host
Brian Lee Huynh 	... 	Cab Driver 

Data Technical :
!!! SAMPLE !!!
Audio.....: English
Subtitles.: None
[ CD1 ]
Format                           : AVI
Format/Info                      : Audio Video Interleave
File size                        : 700 MiB
Duration                         : 41mn 23s
Overall bit rate                 : 2 365 Kbps
Writing application              : VirtualDubMod 1.5.4.1 (build 2178/release)
Writing library                  : VirtualDubMod build 2178/release
Video
ID                               : 0
Format                           : MPEG-4 Visual
Format profile                   : Advanced Simple@L5
Format settings, BVOP            : No
Format settings, QPel            : No
Format settings, GMC             : No warppoints
Format settings, Matrix          : Custom
Codec ID                         : XVID
Codec ID/Hint                    : XviD
Duration                         : 41mn 23s
Bit rate                         : 2 235 Kbps
Width                            : 720 pixels
Height                           : 416 pixels
Display aspect ratio             : 16:9
Frame rate                       : 25.000 fps
Color space                      : YUV
Chroma subsampling               : 4:2:0
Bit depth                        : 8 bits
Scan type                        : Progressive
Bits/(Pixel*Frame)               : 0.298
Stream size                      : 662 MiB (94%)
Writing library                  : XviD 1.2.1 (UTC 2008-12-04)
Audio
ID                               : 1
Format                           : MPEG Audio
Format version                   : Version 1
Format profile                   : Layer 3
Mode                             : Joint stereo
Mode extension                   : MS Stereo
Codec ID                         : 55
Codec ID/Hint                    : MP3
Duration                         : 41mn 23s
Bit rate mode                    : Variable
Bit rate                         : 118 Kbps
Nominal bit rate                 : 128 Kbps
Channel(s)                       : 2 channels
Sampling rate                    : 48.0 KHz
Stream size                      : 34.8 MiB (5%)
Alignment                        : Aligned on interleaves
Interleave, duration             : 24 ms (0.60 video frame)
Interleave, preload duration     : 520 ms
Writing library                  : LAME3.98r
Encoding settings                : -m j -V 4 -q 2 -lowpass 17 --abr 128
[ CD2 ]
Format                           : AVI
Format/Info                      : Audio Video Interleave
File size                        : 700 MiB
Duration                         : 44mn 7s
Overall bit rate                 : 2 217 Kbps
Writing application              : VirtualDubMod 1.5.4.1 (build 2178/release)
Writing library                  : VirtualDubMod build 2178/release
Video
ID                               : 0
Format                           : MPEG-4 Visual
Format profile                   : Advanced Simple@L5
Format settings, BVOP            : No
Format settings, QPel            : No
Format settings, GMC             : No warppoints
Format settings, Matrix          : Custom
Codec ID                         : XVID
Codec ID/Hint                    : XviD
Duration                         : 44mn 7s
Bit rate                         : 2 086 Kbps
Width                            : 720 pixels
Height                           : 416 pixels
Display aspect ratio             : 16:9
Frame rate                       : 25.000 fps
Color space                      : YUV
Chroma subsampling               : 4:2:0
Bit depth                        : 8 bits
Scan type                        : Progressive
Bits/(Pixel*Frame)               : 0.279
Stream size                      : 658 MiB (94%)
Writing library                  : XviD 1.2.1 (UTC 2008-12-04)
Audio
ID                               : 1
Format                           : MPEG Audio
Format version                   : Version 1
Format profile                   : Layer 3
Mode                             : Joint stereo
Codec ID                         : 55
Codec ID/Hint                    : MP3
Duration                         : 43mn 55s
Bit rate mode                    : Variable
Bit rate                         : 118 Kbps
Channel(s)                       : 2 channels
Sampling rate                    : 48.0 KHz
Stream size                      : 37.2 MiB (5%)
Alignment                        : Aligned on interleaves
Interleave, duration             : 24 ms (0.60 video frame)
Interleave, preload duration     : 510 ms

Screen : 
http://img29.imageshack.us/img29/3515/thewitchesofoz2011s1.jpg 
http://img35.imageshack.us/img35/9164/thewitchesofoz2011s2.jpg 
http://img30.imageshack.us/img30/7240/thewitchesofoz2011s3.jpg 
http://img32.imageshack.us/img32/5498/thewitchesofoz2011s4.jpg 
http://img9.imageshack.us/img9/193/thewitchesofoz2011s5.jpg